<?xml version="1.0" encoding="iso-8859-1"?>
<!-- Generator: Adobe Illustrator 18.0.0, SVG Export Plug-In . SVG Version: 6.00 Build 0)  -->
<!DOCTYPE svg PUBLIC "-//W3C//DTD SVG 1.1//EN" "http://www.w3.org/Graphics/SVG/1.1/DTD/svg11.dtd">
<svg version="1.1" id="Capa_1" xmlns="http://www.w3.org/2000/svg" xmlns:xlink="http://www.w3.org/1999/xlink" x="0px" y="0px"
	 viewBox="0 0 52.826 52.826" style="enable-background:new 0 0 52.826 52.826;" xml:space="preserve">
<path id="XMLID_101_" d="M24.913,39.993v-18.87c-0.822-0.506-1.375-1.406-1.375-2.442c0-1.588,1.287-2.875,2.875-2.875
	c1.588,0,2.875,1.287,2.875,2.875c0,1.036-0.553,1.936-1.375,2.442v18.87H24.913z M18.761,14.541
	c0.105-1.287,1.18-2.278,2.471-2.278h10.36c1.291,0,2.366,0.991,2.471,2.278l2.076,25.451h6.689L39.406,3.868
	C39.228,1.683,37.402,0,35.209,0H17.617c-2.193,0-4.018,1.683-4.197,3.868L9.996,39.993h6.689L18.761,14.541z M43.114,42.993H9.712
	l-0.5,5.28c-0.2,2.452,1.736,4.553,4.197,4.553h26.009c2.461,0,4.397-2.101,4.197-4.553L43.114,42.993z"/>
<g>
</g>
<g>
</g>
<g>
</g>
<g>
</g>
<g>
</g>
<g>
</g>
<g>
</g>
<g>
</g>
<g>
</g>
<g>
</g>
<g>
</g>
<g>
</g>
<g>
</g>
<g>
</g>
<g>
</g>
</svg>
