<?xml version="1.0" encoding="UTF-8" standalone="no"?>
<svg
   xmlns:dc="http://purl.org/dc/elements/1.1/"
   xmlns:cc="http://creativecommons.org/ns#"
   xmlns:rdf="http://www.w3.org/1999/02/22-rdf-syntax-ns#"
   xmlns:svg="http://www.w3.org/2000/svg"
   xmlns="http://www.w3.org/2000/svg"
   xmlns:sodipodi="http://sodipodi.sourceforge.net/DTD/sodipodi-0.dtd"
   xmlns:inkscape="http://www.inkscape.org/namespaces/inkscape"
   enable-background="new 0 0 512 512"
   height="512px"
   version="1.1"
   viewBox="0 0 512 512"
   width="512px"
   xml:space="preserve"
   id="svg4238"
   sodipodi:docname="mic-recording.svg"
   inkscape:version="0.92.1 r"><metadata
     id="metadata4244"><rdf:RDF><cc:Work
         rdf:about=""><dc:format>image/svg+xml</dc:format><dc:type
           rdf:resource="http://purl.org/dc/dcmitype/StillImage" /></cc:Work></rdf:RDF></metadata><defs
     id="defs4242" /><sodipodi:namedview
     pagecolor="#ffffff"
     bordercolor="#666666"
     borderopacity="1"
     objecttolerance="10"
     gridtolerance="10"
     guidetolerance="10"
     inkscape:pageopacity="0"
     inkscape:pageshadow="2"
     inkscape:window-width="696"
     inkscape:window-height="449"
     id="namedview4240"
     showgrid="false"
     inkscape:zoom="0.14928528"
     inkscape:cx="-4.9841785"
     inkscape:cy="445.2627"
     inkscape:window-x="0"
     inkscape:window-y="23"
     inkscape:window-maximized="0"
     inkscape:current-layer="svg4238" /><g
     id="Layer_5" /><g
     id="Layer_3"><rect
       fill="red"
       height="700"
       width="500"
       x="545"
       y="-128"
       id="rect3995" /><rect
       fill="#2F75B5"
       height="700"
       width="500"
       x="545"
       y="-857"
       id="rect3997" /><rect
       fill="#74F05D"
       height="700"
       width="500"
       x="-526"
       y="-857"
       id="rect3999" /><rect
       fill="#F4C61D"
       height="700"
       width="500"
       x="-526"
       y="-128"
       id="rect4001" /><rect
       fill="#7ED746"
       height="700"
       width="500"
       x="-526"
       y="607"
       id="rect4003" /><rect
       fill="#7ED746"
       height="700"
       width="500"
       x="1078"
       y="-857"
       id="rect4005" /><rect
       fill="#05BE53"
       height="700"
       width="500"
       x="545"
       y="607"
       id="rect4007" /></g><g
     id="Layer_2"
     style="fill:#fc0000;fill-opacity:1"><g
       id="g4034"
       style="fill:#fc0000;fill-opacity:1"><rect
         fill="#F2F2F2"
         height="18"
         width="134"
         x="731"
         y="436"
         id="rect4010"
         style="fill:#fc0000;fill-opacity:1" /><ellipse
         cx="731.192"
         cy="445"
         fill="#F2F2F2"
         rx="8.936"
         ry="9"
         id="ellipse4012"
         style="fill:#fc0000;fill-opacity:1" /><ellipse
         cx="865.593"
         cy="445"
         fill="#F2F2F2"
         rx="8.936"
         ry="9"
         id="ellipse4014"
         style="fill:#fc0000;fill-opacity:1" /><rect
         fill="#F2F2F2"
         height="63"
         width="20"
         x="788"
         y="381"
         id="rect4016"
         style="fill:#fc0000;fill-opacity:1" /><g
         id="g4024"
         style="fill:#fc0000;fill-opacity:1"><path
           d="M899,259v0.51c0,67.8-45.327,122.771-101,122.771c-55.672,0-101-54.971-101-122.771V259h16.957     c-0.009,0.16-0.009,0.32-0.009,0.48c0,57.229,38.093,103.619,85.086,103.619s85.085-46.39,85.085-103.619     c0-0.16,0-0.32-0.008-0.48H899z"
           fill="#F2F2F2"
           id="path4018"
           style="fill:#fc0000;fill-opacity:1" /><ellipse
           cx="705.713"
           cy="259"
           fill="#F2F2F2"
           rx="8.211"
           ry="10"
           id="ellipse4020"
           style="fill:#fc0000;fill-opacity:1" /><ellipse
           cx="891.793"
           cy="259"
           fill="#F2F2F2"
           rx="7.706"
           ry="9.333"
           id="ellipse4022"
           style="fill:#fc0000;fill-opacity:1" /></g><g
         id="g4032"
         style="fill:#fc0000;fill-opacity:1"><rect
           fill="#F2F2F2"
           height="143"
           width="84"
           x="756"
           y="154"
           id="rect4026"
           style="fill:#fc0000;fill-opacity:1" /><circle
           cx="798.5"
           cy="297"
           fill="#F2F2F2"
           r="42"
           id="circle4028"
           style="fill:#fc0000;fill-opacity:1" /><circle
           cx="798.5"
           cy="154"
           fill="#F2F2F2"
           r="42"
           id="circle4030"
           style="fill:#fc0000;fill-opacity:1" /></g></g><g
       id="g4060"
       style="fill:#fc0000;fill-opacity:1"><rect
         fill="#252525"
         height="18"
         width="134"
         x="-340"
         y="-293"
         id="rect4036"
         style="fill:#fc0000;fill-opacity:1" /><ellipse
         cx="-339.808"
         cy="-284"
         fill="#252525"
         rx="8.936"
         ry="9"
         id="ellipse4038"
         style="fill:#fc0000;fill-opacity:1" /><ellipse
         cx="-205.407"
         cy="-284"
         fill="#252525"
         rx="8.936"
         ry="9"
         id="ellipse4040"
         style="fill:#fc0000;fill-opacity:1" /><rect
         fill="#252525"
         height="63"
         width="20"
         x="-283"
         y="-348"
         id="rect4042"
         style="fill:#fc0000;fill-opacity:1" /><g
         id="g4050"
         style="fill:#fc0000;fill-opacity:1"><path
           d="M-172-470v0.51c0,67.8-45.327,122.771-101,122.771c-55.672,0-101-54.971-101-122.771V-470h16.957     c-0.009,0.16-0.009,0.32-0.009,0.48c0,57.229,38.093,103.619,85.086,103.619s85.085-46.39,85.085-103.619     c0-0.16,0-0.32-0.008-0.48H-172z"
           fill="#252525"
           id="path4044"
           style="fill:#fc0000;fill-opacity:1" /><ellipse
           cx="-365.287"
           cy="-470"
           fill="#252525"
           rx="8.211"
           ry="10"
           id="ellipse4046"
           style="fill:#fc0000;fill-opacity:1" /><ellipse
           cx="-179.207"
           cy="-470"
           fill="#252525"
           rx="7.706"
           ry="9.333"
           id="ellipse4048"
           style="fill:#fc0000;fill-opacity:1" /></g><g
         id="g4058"
         style="fill:#fc0000;fill-opacity:1"><rect
           fill="#252525"
           height="143"
           width="84"
           x="-315"
           y="-575"
           id="rect4052"
           style="fill:#fc0000;fill-opacity:1" /><circle
           cx="-272.5"
           cy="-432"
           fill="#252525"
           r="42"
           id="circle4054"
           style="fill:#fc0000;fill-opacity:1" /><circle
           cx="-272.5"
           cy="-575"
           fill="#252525"
           r="42"
           id="circle4056"
           style="fill:#fc0000;fill-opacity:1" /></g></g><g
       id="g4086"
       style="fill:#fc0000;fill-opacity:1"><rect
         fill="#252525"
         height="18"
         width="134"
         x="-340"
         y="436"
         id="rect4062"
         style="fill:#fc0000;fill-opacity:1" /><ellipse
         cx="-339.808"
         cy="445"
         fill="#252525"
         rx="8.936"
         ry="9"
         id="ellipse4064"
         style="fill:#fc0000;fill-opacity:1" /><ellipse
         cx="-205.407"
         cy="445"
         fill="#252525"
         rx="8.936"
         ry="9"
         id="ellipse4066"
         style="fill:#fc0000;fill-opacity:1" /><rect
         fill="#252525"
         height="63"
         width="20"
         x="-283"
         y="381"
         id="rect4068"
         style="fill:#fc0000;fill-opacity:1" /><g
         id="g4076"
         style="fill:#fc0000;fill-opacity:1"><path
           d="M-172,259v0.51c0,67.8-45.327,122.771-101,122.771c-55.672,0-101-54.971-101-122.771V259h16.957     c-0.009,0.16-0.009,0.32-0.009,0.48c0,57.229,38.093,103.619,85.086,103.619s85.085-46.39,85.085-103.619     c0-0.16,0-0.32-0.008-0.48H-172z"
           fill="#252525"
           id="path4070"
           style="fill:#fc0000;fill-opacity:1" /><ellipse
           cx="-365.287"
           cy="259"
           fill="#252525"
           rx="8.211"
           ry="10"
           id="ellipse4072"
           style="fill:#fc0000;fill-opacity:1" /><ellipse
           cx="-179.207"
           cy="259"
           fill="#252525"
           rx="7.706"
           ry="9.333"
           id="ellipse4074"
           style="fill:#fc0000;fill-opacity:1" /></g><g
         id="g4084"
         style="fill:#fc0000;fill-opacity:1"><rect
           fill="#252525"
           height="143"
           width="84"
           x="-315"
           y="154"
           id="rect4078"
           style="fill:#fc0000;fill-opacity:1" /><circle
           cx="-272.5"
           cy="297"
           fill="#252525"
           r="42"
           id="circle4080"
           style="fill:#fc0000;fill-opacity:1" /><circle
           cx="-272.5"
           cy="154"
           fill="#252525"
           r="42"
           id="circle4082"
           style="fill:#fc0000;fill-opacity:1" /></g></g><g
       id="g4112"
       style="fill:#fc0000;fill-opacity:1"><rect
         fill="#252525"
         height="18"
         width="134"
         x="-340"
         y="1171"
         id="rect4088"
         style="fill:#fc0000;fill-opacity:1" /><ellipse
         cx="-339.808"
         cy="1179.65"
         fill="#252525"
         rx="8.936"
         ry="9"
         id="ellipse4090"
         style="fill:#fc0000;fill-opacity:1" /><ellipse
         cx="-205.407"
         cy="1179.65"
         fill="#252525"
         rx="8.936"
         ry="9"
         id="ellipse4092"
         style="fill:#fc0000;fill-opacity:1" /><rect
         fill="#252525"
         height="63"
         width="20"
         x="-283"
         y="1116"
         id="rect4094"
         style="fill:#fc0000;fill-opacity:1" /><g
         id="g4102"
         style="fill:#fc0000;fill-opacity:1"><path
           d="M-172,994v0.16c0,67.8-45.327,122.771-101,122.771c-55.672,0-101-54.971-101-122.771V994h16.957     c-0.009,0-0.009,0.146-0.009,0.306c0,57.229,38.093,103.532,85.086,103.532s85.085-46.259,85.085-103.488     c0-0.16,0-0.35-0.008-0.35H-172z"
           fill="#252525"
           id="path4096"
           style="fill:#fc0000;fill-opacity:1" /><ellipse
           cx="-365.287"
           cy="993.65"
           fill="#252525"
           rx="8.211"
           ry="10"
           id="ellipse4098"
           style="fill:#fc0000;fill-opacity:1" /><ellipse
           cx="-179.207"
           cy="993.65"
           fill="#252525"
           rx="7.706"
           ry="9.333"
           id="ellipse4100"
           style="fill:#fc0000;fill-opacity:1" /></g><g
         id="g4110"
         style="fill:#fc0000;fill-opacity:1"><rect
           fill="#252525"
           height="143"
           width="84"
           x="-315"
           y="889"
           id="rect4104"
           style="fill:#fc0000;fill-opacity:1" /><circle
           cx="-272.5"
           cy="1031.65"
           fill="#252525"
           r="42"
           id="circle4106"
           style="fill:#fc0000;fill-opacity:1" /><circle
           cx="-272.5"
           cy="888.65"
           fill="#252525"
           r="42"
           id="circle4108"
           style="fill:#fc0000;fill-opacity:1" /></g></g><g
       id="g4126"
       style="fill:#fc0000;fill-opacity:1"><g
         id="g4116"
         style="fill:#fc0000;fill-opacity:1"><path
           d="M1398-284c0,4.95-4.5,9-10,9h-114c-5.5,0-10-4.05-10-9s4.5-9,10-9h114C1393.5-293,1398-288.95,1398-284z"
           fill="#252525"
           id="path4114"
           style="fill:#fc0000;fill-opacity:1" /></g><rect
         fill="#252525"
         height="63"
         width="20"
         x="1321"
         y="-348"
         id="rect4118"
         style="fill:#fc0000;fill-opacity:1" /><path
         d="M1432-470v0.16c0,67.8-45.327,122.771-101,122.771c-55.672,0-101-54.971-101-122.771V-470h16.957    c-0.009,0-0.009,0.146-0.009,0.306c0,57.229,38.093,103.532,85.086,103.532s85.085-46.258,85.085-103.488    c0-0.16,0-0.35-0.008-0.35H1432z"
         fill="#252525"
         id="path4120"
         style="fill:#fc0000;fill-opacity:1" /><g
         id="g4124"
         style="fill:#fc0000;fill-opacity:1"><path
           d="M1289-443c0,27.5,18.9,50,42,50s42-22.5,42-50v-121c0-27.5-18.9-50-42-50s-42,22.5-42,50V-443z"
           fill="#252525"
           id="path4122"
           style="fill:#fc0000;fill-opacity:1" /></g></g><g
       id="g4140"
       style="fill:#fc0000;fill-opacity:1"><g
         id="g4130"
         style="fill:#fc0000;fill-opacity:1"><path
           d="M850-284c0,4.95-4.5,9-10,9H726c-5.5,0-10-4.05-10-9s4.5-9,10-9h114C845.5-293,850-288.95,850-284z"
           fill="#F2F2F2"
           id="path4128"
           style="fill:#fc0000;fill-opacity:1" /></g><rect
         fill="#F2F2F2"
         height="63"
         width="20"
         x="773"
         y="-348"
         id="rect4132"
         style="fill:#fc0000;fill-opacity:1" /><path
         d="M884-470v0.16c0,67.8-45.327,122.771-101,122.771c-55.672,0-101-54.971-101-122.771V-470h16.957    c-0.009,0-0.009,0.146-0.009,0.306c0,57.229,38.093,103.532,85.086,103.532s85.085-46.258,85.085-103.488    c0-0.16,0-0.35-0.008-0.35H884z"
         fill="#F2F2F2"
         id="path4134"
         style="fill:#fc0000;fill-opacity:1" /><g
         id="g4138"
         style="fill:#fc0000;fill-opacity:1"><path
           d="M741-443c0,27.5,18.9,50,42,50s42-22.5,42-50v-121c0-27.5-18.9-50-42-50s-42,22.5-42,50V-443z"
           fill="#F2F2F2"
           id="path4136"
           style="fill:#fc0000;fill-opacity:1" /></g></g><g
       id="g4144"
       style="fill:#fc0000;fill-opacity:1"><path
         d="M352.902,479.5c0,6.789-6.75,12.5-15,12.5H184.097c-8.25,0-15-5.711-15-12.5s6.75-12.5,15-12.5h153.805    C346.152,467,352.902,472.711,352.902,479.5z"
         fill="#252525"
         id="path4142"
         style="fill:#fc0000;fill-opacity:1" /></g><rect
       fill="#252525"
       height="86"
       width="28"
       x="247"
       y="392"
       id="rect4146"
       style="fill:#fc0000;fill-opacity:1" /><path
       d="M390,225v-0.758c0,92.999-58.129,168.401-129,168.401c-70.871,0-129-75.402-129-168.401V225h22.013   c-0.011,0-0.011-0.289-0.011-0.07c0,78.502,48.492,141.77,108.314,141.77S370.63,303.613,370.63,225.113   c0-0.22,0-0.113-0.011-0.113H390z"
       fill="#252525"
       id="path4148"
       style="fill:#fc0000;fill-opacity:1" /><g
       id="g4152"
       style="fill:#fc0000;fill-opacity:1"><path
         d="M203,259.642c0,38.5,26.314,70,58,70s58-31.5,58-70V96.5c0-38.5-26.314-70-58-70s-58,31.5-58,70V259.642z"
         fill="#252525"
         id="path4150"
         style="fill:#fc0000;fill-opacity:1" /></g><g
       id="g4178"
       style="fill:#fc0000;fill-opacity:1"><rect
         fill="#F2F2F2"
         height="18"
         width="134"
         x="731"
         y="1171"
         id="rect4154"
         style="fill:#fc0000;fill-opacity:1" /><ellipse
         cx="731.192"
         cy="1180"
         fill="#F2F2F2"
         rx="8.936"
         ry="9"
         id="ellipse4156"
         style="fill:#fc0000;fill-opacity:1" /><ellipse
         cx="865.593"
         cy="1180"
         fill="#F2F2F2"
         rx="8.936"
         ry="9"
         id="ellipse4158"
         style="fill:#fc0000;fill-opacity:1" /><rect
         fill="#F2F2F2"
         height="63"
         width="20"
         x="788"
         y="1116"
         id="rect4160"
         style="fill:#fc0000;fill-opacity:1" /><g
         id="g4168"
         style="fill:#fc0000;fill-opacity:1"><path
           d="M899,994v0.51c0,67.8-45.327,122.771-101,122.771c-55.672,0-101-54.971-101-122.771V994h16.957     c-0.009,0.16-0.009,0.32-0.009,0.48c0,57.229,38.093,103.619,85.086,103.619s85.085-46.39,85.085-103.619     c0-0.16,0-0.32-0.008-0.48H899z"
           fill="#F2F2F2"
           id="path4162"
           style="fill:#fc0000;fill-opacity:1" /><ellipse
           cx="705.713"
           cy="994"
           fill="#F2F2F2"
           rx="8.211"
           ry="10"
           id="ellipse4164"
           style="fill:#fc0000;fill-opacity:1" /><ellipse
           cx="891.793"
           cy="994"
           fill="#F2F2F2"
           rx="7.706"
           ry="9.333"
           id="ellipse4166"
           style="fill:#fc0000;fill-opacity:1" /></g><g
         id="g4176"
         style="fill:#fc0000;fill-opacity:1"><rect
           fill="#F2F2F2"
           height="143"
           width="84"
           x="756"
           y="889"
           id="rect4170"
           style="fill:#fc0000;fill-opacity:1" /><circle
           cx="798.5"
           cy="1032"
           fill="#F2F2F2"
           r="42"
           id="circle4172"
           style="fill:#fc0000;fill-opacity:1" /><circle
           cx="798.5"
           cy="889"
           fill="#F2F2F2"
           r="42"
           id="circle4174"
           style="fill:#fc0000;fill-opacity:1" /></g></g></g><g
     id="Layer_4"><rect
       fill="none"
       height="118.494"
       width="404.357"
       x="681.909"
       y="-87.247"
       id="rect4181" /><text
       fill="#F2F2F2"
       font-family="'ArialMT'"
       font-size="36"
       transform="matrix(1 0 0 1 760.083 -61.4717)"
       id="text4183" />
<rect
       fill="none"
       height="34.499"
       width="196.49"
       x="808.781"
       y="-41.149"
       id="rect4185" /><text
       fill="#F2F2F2"
       font-family="'ArialMT'"
       font-size="14"
       transform="matrix(1 0 0 1 891.6787 -31.1255)"
       id="text4187" />
<rect
       fill="none"
       height="118.494"
       width="404.357"
       x="681.909"
       y="-816.247"
       id="rect4189" /><text
       fill="#F2F2F2"
       font-family="'ArialMT'"
       font-size="36"
       transform="matrix(1 0 0 1 760.083 -790.4717)"
       id="text4191" />
<rect
       fill="none"
       height="34.499"
       width="196.49"
       x="808.781"
       y="-770.149"
       id="rect4193" /><text
       fill="#F2F2F2"
       font-family="'ArialMT'"
       font-size="14"
       transform="matrix(1 0 0 1 891.6787 -760.1255)"
       id="text4195" />
<rect
       fill="none"
       height="118.494"
       width="404.357"
       x="-389.091"
       y="-816.247"
       id="rect4197" /><text
       fill="#252525"
       font-family="'ArialMT'"
       font-size="36"
       transform="matrix(1 0 0 1 -310.917 -790.4717)"
       id="text4199" />
<rect
       fill="none"
       height="34.499"
       width="196.49"
       x="-262.219"
       y="-770.149"
       id="rect4201" /><text
       fill="#252525"
       font-family="'ArialMT'"
       font-size="14"
       transform="matrix(1 0 0 1 -179.3213 -760.1255)"
       id="text4203" />
<rect
       fill="none"
       height="118.494"
       width="404.357"
       x="-383.091"
       y="-87.747"
       id="rect4205" /><text
       fill="#252525"
       font-family="'ArialMT'"
       font-size="36"
       transform="matrix(1 0 0 1 -304.917 -61.9717)"
       id="text4207" />
<rect
       fill="none"
       height="34.499"
       width="196.49"
       x="-262.219"
       y="-41.149"
       id="rect4209" /><text
       fill="#252525"
       font-family="'ArialMT'"
       font-size="14"
       transform="matrix(1 0 0 1 -179.3213 -31.1255)"
       id="text4211" />
<rect
       fill="none"
       height="118.494"
       width="404.357"
       x="-389.091"
       y="647.403"
       id="rect4213" /><text
       fill="#252525"
       font-family="'ArialMT'"
       font-size="36"
       transform="matrix(1 0 0 1 -310.917 673.1787)"
       id="text4215" />
<rect
       fill="none"
       height="34.499"
       width="196.49"
       x="-262.219"
       y="693.501"
       id="rect4217" /><text
       fill="#252525"
       font-family="'ArialMT'"
       font-size="14"
       transform="matrix(1 0 0 1 -179.3213 703.5254)"
       id="text4219" />
<rect
       fill="none"
       height="118.494"
       width="404.357"
       x="1214.909"
       y="-816.597"
       id="rect4221" /><text
       fill="#252525"
       font-family="'ArialMT'"
       font-size="36"
       transform="matrix(1 0 0 1 1293.083 -790.8213)"
       id="text4223" />
<rect
       fill="none"
       height="34.499"
       width="196.49"
       x="1341.781"
       y="-770.499"
       id="rect4225" /><text
       fill="#252525"
       font-family="'ArialMT'"
       font-size="14"
       transform="matrix(1 0 0 1 1424.6787 -760.4751)"
       id="text4227" />
<rect
       fill="none"
       height="118.494"
       width="404.357"
       x="681.909"
       y="647.753"
       id="rect4229" /><text
       fill="#F2F2F2"
       font-family="'ArialMT'"
       font-size="36"
       transform="matrix(1 0 0 1 760.083 673.5283)"
       id="text4231" />
<rect
       fill="none"
       height="34.499"
       width="196.49"
       x="808.781"
       y="693.851"
       id="rect4233" /><text
       fill="#F2F2F2"
       font-family="'ArialMT'"
       font-size="14"
       transform="matrix(1 0 0 1 891.6787 703.875)"
       id="text4235" />
</g></svg>