<?xml version="1.0" ?><!DOCTYPE svg  PUBLIC '-//W3C//DTD SVG 1.1//EN'
        'http://www.w3.org/Graphics/SVG/1.1/DTD/svg11.dtd'>
<svg enable-background="new 0 0 512 512" height="512px" version="1.1" viewBox="0 0 512 512" width="512px" xml:space="preserve" xmlns="http://www.w3.org/2000/svg" xmlns:xlink="http://www.w3.org/1999/xlink"><g id="Layer_5"/><g id="Layer_3"><rect fill="#F1948A" height="700" width="500" x="545" y="-128"/><rect fill="#F1948A" height="700" width="500" x="545" y="-857"/><rect fill="#F1948A" height="700" width="500" x="-526" y="-857"/><rect fill="#F1948A" height="700" width="500" x="-526" y="-128"/><rect fill="#F1948A" height="700" width="500" x="-526" y="607"/><rect fill="#F1948A" height="700" width="500" x="1078" y="-857"/><rect fill="#F1948A" height="700" width="500" x="545" y="607"/></g><g id="Layer_2"><g><rect fill="#F1948A" height="18" width="134" x="731" y="436"/><ellipse cx="731.192" cy="445" fill="#F1948A" rx="8.936" ry="9"/><ellipse cx="865.593" cy="445" fill="#F1948A" rx="8.936" ry="9"/><rect fill="#F1948A" height="63" width="20" x="788" y="381"/><g><path d="M899,259v0.51c0,67.8-45.327,122.771-101,122.771c-55.672,0-101-54.971-101-122.771V259h16.957     c-0.009,0.16-0.009,0.32-0.009,0.48c0,57.229,38.093,103.619,85.086,103.619s85.085-46.39,85.085-103.619     c0-0.16,0-0.32-0.008-0.48H899z" fill="#F1948A"/><ellipse cx="705.713" cy="259" fill="#F1948A" rx="8.211" ry="10"/><ellipse cx="891.793" cy="259" fill="#F1948A" rx="7.706" ry="9.333"/></g><g><rect fill="#F1948A" height="143" width="84" x="756" y="154"/><circle cx="798.5" cy="297" fill="#F1948A" r="42"/><circle cx="798.5" cy="154" fill="#F1948A" r="42"/></g></g><g><rect fill="#F1948A" height="18" width="134" x="-340" y="-293"/><ellipse cx="-339.808" cy="-284" fill="#F1948A" rx="8.936" ry="9"/><ellipse cx="-205.407" cy="-284" fill="#F1948A" rx="8.936" ry="9"/><rect fill="#F1948A" height="63" width="20" x="-283" y="-348"/><g><path d="M-172-470v0.51c0,67.8-45.327,122.771-101,122.771c-55.672,0-101-54.971-101-122.771V-470h16.957     c-0.009,0.16-0.009,0.32-0.009,0.48c0,57.229,38.093,103.619,85.086,103.619s85.085-46.39,85.085-103.619     c0-0.16,0-0.32-0.008-0.48H-172z" fill="#F1948A"/><ellipse cx="-365.287" cy="-470" fill="#F1948A" rx="8.211" ry="10"/><ellipse cx="-179.207" cy="-470" fill="#F1948A" rx="7.706" ry="9.333"/></g><g><rect fill="#F1948A" height="143" width="84" x="-315" y="-575"/><circle cx="-272.5" cy="-432" fill="#F1948A" r="42"/><circle cx="-272.5" cy="-575" fill="#F1948A" r="42"/></g></g><g><rect fill="#F1948A" height="18" width="134" x="-340" y="436"/><ellipse cx="-339.808" cy="445" fill="#F1948A" rx="8.936" ry="9"/><ellipse cx="-205.407" cy="445" fill="#F1948A" rx="8.936" ry="9"/><rect fill="#F1948A" height="63" width="20" x="-283" y="381"/><g><path d="M-172,259v0.51c0,67.8-45.327,122.771-101,122.771c-55.672,0-101-54.971-101-122.771V259h16.957     c-0.009,0.16-0.009,0.32-0.009,0.48c0,57.229,38.093,103.619,85.086,103.619s85.085-46.39,85.085-103.619     c0-0.16,0-0.32-0.008-0.48H-172z" fill="#F1948A"/><ellipse cx="-365.287" cy="259" fill="#F1948A" rx="8.211" ry="10"/><ellipse cx="-179.207" cy="259" fill="#F1948A" rx="7.706" ry="9.333"/></g><g><rect fill="#F1948A" height="143" width="84" x="-315" y="154"/><circle cx="-272.5" cy="297" fill="#F1948A" r="42"/><circle cx="-272.5" cy="154" fill="#F1948A" r="42"/></g></g><g><rect fill="#F1948A" height="18" width="134" x="-340" y="1171"/><ellipse cx="-339.808" cy="1179.65" fill="#F1948A" rx="8.936" ry="9"/><ellipse cx="-205.407" cy="1179.65" fill="#F1948A" rx="8.936" ry="9"/><rect fill="#F1948A" height="63" width="20" x="-283" y="1116"/><g><path d="M-172,994v0.16c0,67.8-45.327,122.771-101,122.771c-55.672,0-101-54.971-101-122.771V994h16.957     c-0.009,0-0.009,0.146-0.009,0.306c0,57.229,38.093,103.532,85.086,103.532s85.085-46.259,85.085-103.488     c0-0.16,0-0.35-0.008-0.35H-172z" fill="#F1948A"/><ellipse cx="-365.287" cy="993.65" fill="#F1948A" rx="8.211" ry="10"/><ellipse cx="-179.207" cy="993.65" fill="#F1948A" rx="7.706" ry="9.333"/></g><g><rect fill="#F1948A" height="143" width="84" x="-315" y="889"/><circle cx="-272.5" cy="1031.65" fill="#F1948A" r="42"/><circle cx="-272.5" cy="888.65" fill="#F1948A" r="42"/></g></g><g><g><path d="M1398-284c0,4.95-4.5,9-10,9h-114c-5.5,0-10-4.05-10-9s4.5-9,10-9h114C1393.5-293,1398-288.95,1398-284z" fill="#F1948A"/></g><rect fill="#F1948A" height="63" width="20" x="1321" y="-348"/><path d="M1432-470v0.16c0,67.8-45.327,122.771-101,122.771c-55.672,0-101-54.971-101-122.771V-470h16.957    c-0.009,0-0.009,0.146-0.009,0.306c0,57.229,38.093,103.532,85.086,103.532s85.085-46.258,85.085-103.488    c0-0.16,0-0.35-0.008-0.35H1432z" fill="#F1948A"/><g><path d="M1289-443c0,27.5,18.9,50,42,50s42-22.5,42-50v-121c0-27.5-18.9-50-42-50s-42,22.5-42,50V-443z" fill="#F1948A"/></g></g><g><g><path d="M850-284c0,4.95-4.5,9-10,9H726c-5.5,0-10-4.05-10-9s4.5-9,10-9h114C845.5-293,850-288.95,850-284z" fill="#F1948A"/></g><rect fill="#F1948A" height="63" width="20" x="773" y="-348"/><path d="M884-470v0.16c0,67.8-45.327,122.771-101,122.771c-55.672,0-101-54.971-101-122.771V-470h16.957    c-0.009,0-0.009,0.146-0.009,0.306c0,57.229,38.093,103.532,85.086,103.532s85.085-46.258,85.085-103.488    c0-0.16,0-0.35-0.008-0.35H884z" fill="#F1948A"/><g><path d="M741-443c0,27.5,18.9,50,42,50s42-22.5,42-50v-121c0-27.5-18.9-50-42-50s-42,22.5-42,50V-443z" fill="#F1948A"/></g></g><g><path d="M352.902,479.5c0,6.789-6.75,12.5-15,12.5H184.097c-8.25,0-15-5.711-15-12.5s6.75-12.5,15-12.5h153.805    C346.152,467,352.902,472.711,352.902,479.5z" fill="#F1948A"/></g><rect fill="#F1948A" height="86" width="28" x="247" y="392"/><path d="M390,225v-0.758c0,92.999-58.129,168.401-129,168.401c-70.871,0-129-75.402-129-168.401V225h22.013   c-0.011,0-0.011-0.289-0.011-0.07c0,78.502,48.492,141.77,108.314,141.77S370.63,303.613,370.63,225.113   c0-0.22,0-0.113-0.011-0.113H390z" fill="#F1948A"/><g><path d="M203,259.642c0,38.5,26.314,70,58,70s58-31.5,58-70V96.5c0-38.5-26.314-70-58-70s-58,31.5-58,70V259.642z" fill="#F1948A"/></g><g><rect fill="#F1948A" height="18" width="134" x="731" y="1171"/><ellipse cx="731.192" cy="1180" fill="#F1948A" rx="8.936" ry="9"/><ellipse cx="865.593" cy="1180" fill="#F1948A" rx="8.936" ry="9"/><rect fill="#F1948A" height="63" width="20" x="788" y="1116"/><g><path d="M899,994v0.51c0,67.8-45.327,122.771-101,122.771c-55.672,0-101-54.971-101-122.771V994h16.957     c-0.009,0.16-0.009,0.32-0.009,0.48c0,57.229,38.093,103.619,85.086,103.619s85.085-46.39,85.085-103.619     c0-0.16,0-0.32-0.008-0.48H899z" fill="#F1948A"/><ellipse cx="705.713" cy="994" fill="#F1948A" rx="8.211" ry="10"/><ellipse cx="891.793" cy="994" fill="#F1948A" rx="7.706" ry="9.333"/></g><g><rect fill="#F1948A" height="143" width="84" x="756" y="889"/><circle cx="798.5" cy="1032" fill="#F1948A" r="42"/><circle cx="798.5" cy="889" fill="#F1948A" r="42"/></g></g></g><g id="Layer_4"><rect fill="none" height="118.494" width="404.357" x="681.909" y="-87.247"/><text fill="#F1948A" font-family="'ArialMT'" font-size="36" transform="matrix(1 0 0 1 760.083 -61.4717)"/><rect fill="none" height="34.499" width="196.49" x="808.781" y="-41.149"/><text fill="#F1948A" font-family="'ArialMT'" font-size="14" transform="matrix(1 0 0 1 891.6787 -31.1255)"/><rect fill="none" height="118.494" width="404.357" x="681.909" y="-816.247"/><text fill="#F1948A" font-family="'ArialMT'" font-size="36" transform="matrix(1 0 0 1 760.083 -790.4717)"/><rect fill="none" height="34.499" width="196.49" x="808.781" y="-770.149"/><text fill="#F1948A" font-family="'ArialMT'" font-size="14" transform="matrix(1 0 0 1 891.6787 -760.1255)"/><rect fill="none" height="118.494" width="404.357" x="-389.091" y="-816.247"/><text fill="#F1948A" font-family="'ArialMT'" font-size="36" transform="matrix(1 0 0 1 -310.917 -790.4717)"/><rect fill="none" height="34.499" width="196.49" x="-262.219" y="-770.149"/><text fill="#F1948A" font-family="'ArialMT'" font-size="14" transform="matrix(1 0 0 1 -179.3213 -760.1255)"/><rect fill="none" height="118.494" width="404.357" x="-383.091" y="-87.747"/><text fill="#F1948A" font-family="'ArialMT'" font-size="36" transform="matrix(1 0 0 1 -304.917 -61.9717)"/><rect fill="none" height="34.499" width="196.49" x="-262.219" y="-41.149"/><text fill="#F1948A" font-family="'ArialMT'" font-size="14" transform="matrix(1 0 0 1 -179.3213 -31.1255)"/><rect fill="none" height="118.494" width="404.357" x="-389.091" y="647.403"/><text fill="#F1948A" font-family="'ArialMT'" font-size="36" transform="matrix(1 0 0 1 -310.917 673.1787)"/><rect fill="none" height="34.499" width="196.49" x="-262.219" y="693.501"/><text fill="#F1948A" font-family="'ArialMT'" font-size="14" transform="matrix(1 0 0 1 -179.3213 703.5254)"/><rect fill="none" height="118.494" width="404.357" x="1214.909" y="-816.597"/><text fill="#F1948A" font-family="'ArialMT'" font-size="36" transform="matrix(1 0 0 1 1293.083 -790.8213)"/><rect fill="none" height="34.499" width="196.49" x="1341.781" y="-770.499"/><text fill="#F1948A" font-family="'ArialMT'" font-size="14" transform="matrix(1 0 0 1 1424.6787 -760.4751)"/><rect fill="none" height="118.494" width="404.357" x="681.909" y="647.753"/><text fill="#F1948A" font-family="'ArialMT'" font-size="36" transform="matrix(1 0 0 1 760.083 673.5283)"/><rect fill="none" height="34.499" width="196.49" x="808.781" y="693.851"/><text fill="#F1948A" font-family="'ArialMT'" font-size="14" transform="matrix(1 0 0 1 891.6787 703.875)"/></g></svg>
